<svg version="1.0" width="621.35004pt" height="703.30054pt" viewBox="0 0 621.35004 703.30054" preserveAspectRatio="xMidYMid" id="svg3" xmlns="http://www.w3.org/2000/svg" xmlns:svg="http://www.w3.org/2000/svg"><defs id="defs3"/><g transform="matrix(0.1,0,0,-0.1,-225.75001,870.30055)" fill="#000" stroke="none" id="g3"><path d="M5645 8365c-143-143-478-472-745-730-267-259-602-585-745-726-143-140-341-334-440-430-241-233-1001-986-1137-1126-60-61-145-139-188-174-44-34-80-66-80-70s30-34 66-66 102-98 146-148c44-49 241-252 437-450s389-397 430-442c41-46 78-83 83-83 4 0 8 57 8 128 1 252 67 433 239 651 96 122 488 513 1181 1176 617 591 651 627 756 785 177 266 262 503 279 780 4 58 2 212-4 344-6 131-11 375-11 542s-4 303-8 302-124-119-267-263z" id="path1" style="fill:#666"/><path d="m5592.5001 8440c-143-142.9997-478-471.9997-745-729.9997-267-259-602-585-745-726-143-140-341-334-440-430-241-233-1001-986-1137-1126-60-61-145-139-188-174-44-34-80-66-80-70s30-34 66-66 102-98 146-148c44-49 241-252 437-450s389-397 430-442c41-46 78-83 83-83 4 0 8 57 8 128 1 252 67 433 239 651 96 122 488 513 1181 1176 617 591 651 627 756 785 177 266 262 503 279 780 4 58 2 212-4 344-6 131-11 375-11 541.9997.0 167-4 303-8 302s-124-119-267-263z" id="path1-6" style="fill:#fff"/><path d="m6335 7168c0-122-17-232-51-337-26-80-112-243-166-316-57-77-376-398-1277-1285-327-322-624-621-661-665-192-230-296-469-307-705-6-128 10-305 33-359 8-20 41-60 73-91 31-30 146-149 255-265 109-115 201-211 205-213 4-1 7 64 7 145-2 270 64 461 239 697 43 59 428 451 670 683 34 32 182 175 330 317 427 411 451 434 630 604 204 194 357 361 385 420 11 24 34 61 50 84 17 23 30 45 30 49 0 5 20 51 45 102 69 141 89 247 89 477 1 105-4 192-9 202-9 15-204 221-459 486-49 50-94 92-1e2 92-7 0-11-43-11-122z" id="path2" style="fill:#fff"/><path d="m7317 6173c-8-124-36-255-77-361-38-98-132-242-209-321-99-1e2-554-545-1066-1043-772-750-827-809-937-1007-1e2-181-165-407-175-611-8-148 8-1160 17-1160 5 0 42 33 82 73 40 41 150 145 243 233 301 282 543 512 890 849 187 182 462 447 610 590 149 142 344 331 435 420s284 276 430 416c146 139 398 384 560 544 162 159 308 299 323 310l28 20-81 70c-45 39-123 115-175 170-51 55-269 277-484 494-215 216-391 397-391 402s-4 9-9 9c-4 0-11-44-14-97z" id="path3" style="fill:#fff"/></g></svg>